<svg width="18" height="19" viewBox="0 0 18 19" fill="none" xmlns="http://www.w3.org/2000/svg">
<path d="M15.2731 10.0303C15.4137 9.88962 15.4927 9.69889 15.4927 9.50001C15.4927 9.30114 15.4137 9.11041 15.2731 8.96976L11.0303 4.72701C10.9612 4.65538 10.8784 4.59824 10.7869 4.55894C10.6954 4.51963 10.597 4.49894 10.4974 4.49808C10.3978 4.49721 10.299 4.51619 10.2069 4.5539C10.1147 4.59161 10.031 4.6473 9.96054 4.71772C9.89012 4.78814 9.83443 4.87188 9.79672 4.96405C9.75901 5.05622 9.74003 5.15498 9.7409 5.25456C9.74176 5.35415 9.76245 5.45256 9.80176 5.54407C9.84107 5.63557 9.8982 5.71833 9.96984 5.78751L12.9323 8.75001H3.00009C2.80117 8.75001 2.61041 8.82903 2.46976 8.96968C2.3291 9.11033 2.25009 9.3011 2.25009 9.50001C2.25009 9.69893 2.3291 9.88969 2.46976 10.0303C2.61041 10.171 2.80117 10.25 3.00009 10.25H12.9323L9.96984 13.2125C9.83322 13.354 9.75762 13.5434 9.75933 13.7401C9.76104 13.9367 9.83992 14.1248 9.97897 14.2639C10.118 14.4029 10.3061 14.4818 10.5028 14.4835C10.6994 14.4852 10.8889 14.4096 11.0303 14.273L15.2731 10.0303Z" fill="white"/>
</svg>
