<svg width="20" height="24" viewBox="0 0 20 24" fill="none" xmlns="http://www.w3.org/2000/svg">
<path d="M8.75007 0.75C13.5001 0.75 17.2501 4.375 17.5001 9.125L19.8751 12.25C20.1251 12.625 19.8751 13.25 19.3751 13.25H17.5001V17C17.5001 18.375 16.3751 19.5 15.0001 19.5H13.7501V23.25H5.00007V17.375C2.00007 16 6.86646e-05 13 6.86646e-05 9.5C6.86646e-05 4.625 3.87507 0.75 8.75007 0.75ZM6.12507 12.625L8.75007 10L11.3751 12.625L13.1251 10.875L10.5001 8.25L13.1251 5.625L11.3751 3.875L8.75007 6.5L6.12507 3.875L4.37507 5.625L7.00007 8.25L4.37507 10.875L6.12507 12.625Z" fill="#524FDE"/>
</svg>
