<svg width="30" height="26" viewBox="0 0 30 26" fill="none" xmlns="http://www.w3.org/2000/svg">
<path d="M10.9615 0H2.30769C1.69569 0 1.10869 0.288372 0.675922 0.801622C0.243153 1.31487 0 2.01103 0 2.73684V13.6842C0 14.41 0.243153 15.1062 0.675922 15.6194C1.10869 16.1327 1.69569 16.4211 2.30769 16.4211H10.9615V17.7895C10.9615 19.2412 10.4753 20.6334 9.60969 21.6599C8.74415 22.6865 7.57023 23.2632 6.34615 23.2632C6.04015 23.2632 5.74661 23.4073 5.53023 23.6639C5.31385 23.9205 5.19231 24.2687 5.19231 24.6316C5.19231 24.9945 5.31385 25.3426 5.53023 25.5992C5.74661 25.8558 6.04015 26 6.34615 26C8.18169 25.9977 9.94146 25.132 11.2394 23.5927C12.5373 22.0534 13.2673 19.9664 13.2692 17.7895V2.73684C13.2692 2.01103 13.0261 1.31487 12.5933 0.801622C12.1605 0.288372 11.5735 0 10.9615 0ZM10.9615 13.6842H2.30769V2.73684H10.9615V13.6842ZM27.6923 0H19.0385C18.4265 0 17.8395 0.288372 17.4067 0.801622C16.9739 1.31487 16.7308 2.01103 16.7308 2.73684V13.6842C16.7308 14.41 16.9739 15.1062 17.4067 15.6194C17.8395 16.1327 18.4265 16.4211 19.0385 16.4211H27.6923V17.7895C27.6923 19.2412 27.206 20.6334 26.3405 21.6599C25.4749 22.6865 24.301 23.2632 23.0769 23.2632C22.7709 23.2632 22.4774 23.4073 22.261 23.6639C22.0446 23.9205 21.9231 24.2687 21.9231 24.6316C21.9231 24.9945 22.0446 25.3426 22.261 25.5992C22.4774 25.8558 22.7709 26 23.0769 26C24.9125 25.9977 26.6723 25.132 27.9702 23.5927C29.2681 22.0534 29.9981 19.9664 30 17.7895V2.73684C30 2.01103 29.7569 1.31487 29.3241 0.801622C28.8913 0.288372 28.3043 0 27.6923 0ZM27.6923 13.6842H19.0385V2.73684H27.6923V13.6842Z" fill="#6C6A72"/>
</svg>
