<svg width="32" height="41" viewBox="0 0 32 41" fill="none" xmlns="http://www.w3.org/2000/svg">
<path d="M3.25788 7.86801L4.49988 13.158L3.25788 18.425L7.88088 21.277L10.7099 25.9L15.9999 24.658L21.2899 25.9L24.1189 21.277L28.7419 18.425L27.4999 13.158L28.7419 7.86801L24.1419 5.01601L21.2899 0.393005L15.9999 1.65801L10.7329 0.416005L7.85788 5.01601L3.25788 7.86801ZM16.0229 22.45C13.5829 22.45 11.2428 21.4807 9.5175 19.7554C7.79217 18.0301 6.82288 15.69 6.82288 13.25C6.82288 10.81 7.79217 8.46996 9.5175 6.74462C11.2428 5.01929 13.5829 4.05001 16.0229 4.05001C21.0829 4.05001 25.1999 8.16701 25.1999 13.227C25.1999 18.333 21.0829 22.45 16.0229 22.45ZM15.9769 20.15C12.1589 20.15 9.09988 17.068 9.09988 13.25C9.09988 9.45501 12.1589 6.35001 15.9769 6.35001C19.7949 6.35001 22.8999 9.45501 22.8999 13.25C22.8999 17.068 19.7949 20.15 15.9769 20.15ZM24.8089 22.68L21.8649 27.832L17.0809 26.751L22.8999 40.16L26.1199 35.1H31.8699L24.8089 22.68ZM7.09888 22.841L9.97388 28.016L14.8729 26.843L9.09988 40.16L5.87988 35.1H0.129883L7.09888 22.841Z" fill="white"/>
</svg>
