<svg width="30" height="30" viewBox="0 0 30 30" fill="none" xmlns="http://www.w3.org/2000/svg">
<g clip-path="url(#clip0_104_1236)">
<path d="M9.32867 10.1226L9.52867 10.1076C9.60109 10.1006 9.67034 10.0778 9.7301 10.0413L9.72867 10.0426C9.9201 10.6201 10.1544 11.2276 10.4472 11.8638C10.823 12.6963 11.193 13.3801 11.6072 14.0401L11.5501 13.9401C11.5158 14.3951 11.4744 14.8626 11.4201 15.3151C11.3963 15.582 11.3344 15.8453 11.2358 16.0988L11.243 16.0763C11.2258 16.0826 11.2015 18.6763 11.2015 18.6763C11.2021 19.4811 11.5121 20.2624 12.0816 20.8943C12.6512 21.5262 13.4472 21.9721 14.3415 22.1601L14.3701 22.1651C14.4098 22.0748 14.4798 21.9972 14.5708 21.9423C14.6618 21.8874 14.7696 21.8579 14.8801 21.8576H15.7001C15.8096 21.8589 15.9162 21.8884 16.0067 21.9424C16.0972 21.9964 16.1674 22.0726 16.2087 22.1613L16.2101 22.1651C17.112 21.9826 17.9171 21.5392 18.495 20.9064C19.073 20.2737 19.3899 19.4888 19.3944 18.6788C19.3944 18.6788 19.3444 16.0951 19.3187 16.0776C19.2335 15.836 19.1752 15.5877 19.1444 15.3363L19.143 15.3176C19.093 14.8626 19.0601 14.4063 19.013 13.9426C19.3658 13.3851 19.7358 12.7026 20.0615 11.9988L20.1158 11.8663C20.4087 11.2301 20.6358 10.6238 20.8344 10.0451C20.8931 10.0815 20.9614 10.1043 21.033 10.1113H21.0344L21.2358 10.1263C21.4787 10.1488 21.693 9.97382 21.713 9.70257L21.9301 7.28882V7.28632C21.93 7.18919 21.8895 7.09541 21.8161 7.0225C21.7428 6.94959 21.6416 6.90251 21.5315 6.89007H21.5044C21.6946 5.63318 21.5768 4.35525 21.1587 3.14132L21.1772 3.20507C20.7743 2.42222 20.1615 1.73597 19.3908 1.20457C18.6201 0.673169 17.7142 0.312294 16.7501 0.152568L16.713 0.147568C16.2455 0.0655659 15.7709 0.0187282 15.2944 0.00756836H15.2644C14.7659 0.0153797 14.2693 0.06477 13.7815 0.155068L13.833 0.147568C12.8694 0.304069 11.9626 0.660266 11.1887 1.18634C10.4147 1.71242 9.796 2.39307 9.38439 3.17132L9.36867 3.20507C8.95738 4.41432 8.84776 5.68678 9.04724 6.93632L9.04153 6.89007C8.93114 6.90052 8.82903 6.9462 8.75471 7.01838C8.68039 7.09056 8.63908 7.18417 8.63867 7.28132V7.29007L8.85581 9.70382C8.87581 9.98132 9.09296 10.1488 9.32724 10.1263L9.32867 10.1226Z" fill="white"/>
<path d="M30.5945 26.0975C30.4945 22.2975 30.0602 21.4375 29.8259 20.855C29.7331 20.6213 29.6573 19.0413 26.6745 18.0163C24.8459 17.3863 22.4859 17.3738 20.4888 16.635V18.69C20.4867 19.7435 20.066 20.7636 19.2987 21.5755C18.5314 22.3874 17.4653 22.9405 16.2831 23.14L16.2502 23.145C16.2288 23.2559 16.1636 23.3567 16.0659 23.4298C15.9683 23.5029 15.8444 23.5437 15.7159 23.545H15.6902V25.095C15.6902 25.8224 16.0204 26.5199 16.6082 27.0343C17.196 27.5486 17.9932 27.8375 18.8245 27.8375C19.6558 27.8375 20.453 27.5486 21.0408 27.0343C21.6286 26.5199 21.9588 25.8224 21.9588 25.095V24.0125C21.5273 23.9572 21.134 23.7654 20.8533 23.4734C20.5725 23.1815 20.4238 22.8096 20.4352 22.4282C20.4466 22.0468 20.6174 21.6823 20.9152 21.4036C21.213 21.1249 21.6172 20.9513 22.0514 20.9158C22.4856 20.8803 22.9196 20.9852 23.2713 21.2107C23.623 21.4363 23.8681 21.7668 23.9601 22.1397C24.0522 22.5127 23.9848 22.9022 23.7708 23.2346C23.5568 23.5671 23.211 23.8194 22.7988 23.9438L22.7859 23.9475V25.1538C22.7859 26.0734 22.3684 26.9554 21.6252 27.6057C20.882 28.2559 19.8741 28.6213 18.8231 28.6213C17.772 28.6213 16.7641 28.2559 16.0209 27.6057C15.2777 26.9554 14.8602 26.0734 14.8602 25.1538V25.0913V25.0938V23.53C14.7379 23.5227 14.6219 23.4795 14.5312 23.4074C14.4404 23.3352 14.3802 23.2384 14.3602 23.1325V23.13C13.1767 22.9325 12.1085 22.3811 11.3386 21.5701C10.5687 20.7592 10.1451 19.7393 10.1402 18.685V16.6138C8.13449 17.3675 5.7602 17.3825 3.92163 18.0138C0.930199 19.0375 0.861628 20.6138 0.770199 20.8513C0.541628 21.4363 0.101628 22.2925 0.00162774 26.095C-0.0155151 26.595 0.00162782 27.3613 1.72448 28.0313C5.47591 29.3188 10.3088 29.7188 15.0731 30.0063H15.5302C20.3045 29.7213 25.1302 29.3225 28.8788 28.0313C30.5945 27.365 30.6102 26.6025 30.5945 26.0975ZM9.62163 24.5475H7.84163V26.1113H6.5702V24.5525H4.7902V23.44H6.5702V21.8825H7.84163V23.44H9.62163V24.5475Z" fill="white"/>
<path d="M23.1785 22.4561C23.1783 22.2331 23.0769 22.018 22.8965 21.8603C22.7161 21.7027 22.4716 21.6142 22.2167 21.6143C21.9618 21.6143 21.7173 21.703 21.5371 21.8608C21.3569 22.0185 21.2556 22.2324 21.2556 22.4555C21.2556 22.6786 21.3569 22.8925 21.5371 23.0503C21.7173 23.208 21.9618 23.2967 22.2167 23.2968C22.4716 23.2968 22.7161 23.2083 22.8965 23.0507C23.0769 22.8931 23.1783 22.6792 23.1785 22.4561Z" fill="white"/>
</g>
<defs>
<clipPath id="clip0_104_1236">
<rect width="30" height="30" fill="white"/>
</clipPath>
</defs>
</svg>
