<svg width="30" height="30" viewBox="0 0 30 30" fill="none" xmlns="http://www.w3.org/2000/svg">
<path d="M8.00162 4.13112C7.75283 4.13174 7.50441 4.15032 7.2583 4.18673C5.27589 4.47993 3.62419 5.89719 2.55486 8.04747C1.48552 10.1978 1.03095 13.0611 1.48347 16.0928C1.93599 19.1245 3.20718 21.7325 4.85835 23.4804C6.50953 25.2283 8.50382 26.1065 10.4862 25.8133C12.4686 25.5201 14.1204 24.1027 15.1897 21.9524C15.4396 21.4501 15.6554 20.9084 15.8344 20.3352C14.1255 20.3393 12.3871 20.1844 10.4391 18.9121C13.2435 18.0707 14.9426 16.7739 16.4113 15.3822C16.3841 14.8885 16.334 14.3963 16.261 13.9073C15.8085 10.8756 14.5374 8.26743 12.8862 6.51952C11.4415 4.99005 9.73394 4.12667 8.00162 4.13112ZM22.3096 9.84208L17.157 16.2763C17.1506 16.2862 16.1231 17.9229 16.3251 18.7772C16.4159 19.1612 16.7681 19.6143 17.1632 19.6143C17.5584 19.6143 17.9108 19.1612 18.0015 18.7772C18.2023 17.9279 17.1898 16.3082 17.1673 16.2723L17.6841 16.5782L25.1936 21.0228L28.6908 16.6572L22.3096 9.84208ZM22.3717 11.4515L26.4644 15.8226H18.87L22.3717 11.4515ZM14.5664 11.5881L15.3357 12.3094C14.3166 13.3964 12.5525 13.7045 11.1449 13.5641L11.2496 12.5146C12.3821 12.6275 13.9385 12.2578 14.5664 11.5881Z" fill="#3B6B72"/>
</svg>
