<svg width="31" height="30" viewBox="0 0 31 30" fill="none" xmlns="http://www.w3.org/2000/svg">
<path d="M13.2383 1.60718C11.6035 1.63472 10.127 2.60972 9.459 4.11733L17.457 6.53315C17.8086 4.43608 16.5488 2.40288 14.5215 1.78589C14.1582 1.67573 13.7774 1.61538 13.3965 1.60718H13.2383ZM9.15432 5.12749C8.7969 7.23042 10.0567 9.26948 12.0899 9.88472C14.1289 10.5 16.3028 9.49214 17.1582 7.54097L9.15432 5.12749ZM24.711 7.72261C23.2285 7.72847 21.6524 8.44331 20.4629 10.125L13.1504 20.4902C11.1875 23.2675 12.043 26.1738 13.9766 27.5449C15.916 28.9218 18.9336 28.7636 20.8965 25.9863L28.2031 15.6269C30.166 12.8437 29.3106 9.94331 27.377 8.56636C26.6504 8.05073 25.7774 7.7519 24.8574 7.72261H24.711ZM24.6055 8.73628C24.6817 8.73628 24.7578 8.73628 24.8281 8.74214C25.5371 8.77143 26.2051 9.02339 26.7676 9.42769C28.2735 10.4941 29.0293 12.621 27.336 15.0175L23.5567 20.3789C21.459 19.8164 18.7637 17.9003 17.5391 16.1015L21.3301 10.7343C22.3203 9.33393 23.4981 8.75972 24.6055 8.73628ZM5.8467 13.2011C5.28303 13.207 4.72697 13.3242 4.21018 13.5527C2.27014 14.4023 1.26057 16.5703 1.85236 18.6093L9.51174 15.2636C8.74416 13.9687 7.34963 13.1835 5.8467 13.2011ZM9.92775 16.2246L2.26955 19.5761C3.35061 21.416 5.62697 22.1542 7.57815 21.3046C9.52346 20.4492 10.5313 18.2695 9.92775 16.2246Z" fill="white"/>
</svg>
