<svg width="31" height="34" viewBox="0 0 31 34" fill="none" xmlns="http://www.w3.org/2000/svg">
<path fill-rule="evenodd" clip-rule="evenodd" d="M3.83333 0.333328C2.94928 0.333328 2.10143 0.684518 1.47631 1.30964C0.851189 1.93476 0.5 2.78261 0.5 3.66666V31.8333C0.5 32.0741 0.547421 32.3125 0.639554 32.5349C0.731688 32.7573 0.86673 32.9594 1.03697 33.1297C1.20721 33.2999 1.40932 33.435 1.63175 33.5271C1.85418 33.6192 2.09258 33.6667 2.33333 33.6667H28.6667C28.9074 33.6667 29.1458 33.6192 29.3683 33.5271C29.5907 33.435 29.7928 33.2999 29.963 33.1297C30.1333 32.9594 30.2683 32.7573 30.3604 32.5349C30.4526 32.3125 30.5 32.0741 30.5 31.8333V15.3333C30.5 14.4493 30.1488 13.6014 29.5237 12.9763C28.8986 12.3512 28.0507 12 27.1667 12H26.3333C26.1123 12 25.9004 12.0878 25.7441 12.2441C25.5878 12.4004 25.5 12.6123 25.5 12.8333V30.3333H23.8333V3.66666C23.8333 2.78261 23.4821 1.93476 22.857 1.30964C22.2319 0.684518 21.3841 0.333328 20.5 0.333328H3.83333ZM12.1667 5.33333C11.7246 5.33333 11.3007 5.50892 10.9882 5.82148C10.6756 6.13404 10.5 6.55797 10.5 6.99999V8.66666H8.83333C8.39131 8.66666 7.96738 8.84226 7.65482 9.15482C7.34226 9.46738 7.16667 9.8913 7.16667 10.3333C7.16667 10.7754 7.34226 11.1993 7.65482 11.5118C7.96738 11.8244 8.39131 12 8.83333 12H10.5V13.6667C10.5 14.1087 10.6756 14.5326 10.9882 14.8452C11.3007 15.1577 11.7246 15.3333 12.1667 15.3333C12.6087 15.3333 13.0326 15.1577 13.3452 14.8452C13.6577 14.5326 13.8333 14.1087 13.8333 13.6667V12H15.5C15.942 12 16.3659 11.8244 16.6785 11.5118C16.9911 11.1993 17.1667 10.7754 17.1667 10.3333C17.1667 9.8913 16.9911 9.46738 16.6785 9.15482C16.3659 8.84226 15.942 8.66666 15.5 8.66666H13.8333V6.99999C13.8333 6.55797 13.6577 6.13404 13.3452 5.82148C13.0326 5.50892 12.6087 5.33333 12.1667 5.33333ZM12.1667 20.3333C11.2826 20.3333 10.4348 20.6845 9.80964 21.3096C9.18452 21.9348 8.83333 22.7826 8.83333 23.6667V30.3333H15.5V23.6667C15.5 22.7826 15.1488 21.9348 14.5237 21.3096C13.8986 20.6845 13.0507 20.3333 12.1667 20.3333Z" fill="white"/>
</svg>
