<svg width="30" height="30" viewBox="0 0 30 30" fill="none" xmlns="http://www.w3.org/2000/svg">
<path d="M23.0312 27.875C22.6771 27.875 22.3804 27.755 22.1412 27.515C21.9021 27.275 21.7821 26.9783 21.7812 26.625C21.7812 26.4583 21.8125 26.2916 21.875 26.125C21.9375 25.9583 22.0208 25.8229 22.125 25.7187C23.0208 24.8229 23.7242 23.7916 24.235 22.625C24.7458 21.4583 25.0008 20.1875 25 18.8125C25 17.4583 24.745 16.1929 24.235 15.0162C23.725 13.8396 23.0217 12.8029 22.125 11.9062C22.0208 11.8021 21.9375 11.6666 21.875 11.5C21.8125 11.3333 21.7812 11.1666 21.7812 11C21.7812 10.6458 21.9012 10.3491 22.1412 10.11C22.3812 9.87081 22.6779 9.75081 23.0312 9.74998C23.1979 9.74998 23.3596 9.78665 23.5163 9.85998C23.6729 9.93331 23.8029 10.0216 23.9062 10.125C25.0312 11.25 25.9117 12.5575 26.5475 14.0475C27.1833 15.5375 27.5008 17.1258 27.5 18.8125C27.5 20.5208 27.1821 22.1146 26.5462 23.5937C25.9104 25.0729 25.0308 26.375 23.9075 27.5C23.8033 27.6041 23.6733 27.6929 23.5175 27.7662C23.3617 27.8396 23.2 27.8758 23.0325 27.875M19.47 24.3125C19.1158 24.3125 18.8192 24.1929 18.58 23.9537C18.3408 23.7146 18.2208 23.4175 18.22 23.0625C18.22 22.8958 18.2567 22.7346 18.33 22.5787C18.4033 22.4229 18.4917 22.2925 18.595 22.1875C19.0325 21.75 19.3762 21.2446 19.6263 20.6712C19.8763 20.0979 20.0012 19.4783 20.0012 18.8125C20.0012 18.1458 19.8763 17.5262 19.6263 16.9537C19.3762 16.3812 19.0325 15.8758 18.595 15.4375C18.4908 15.3333 18.4021 15.2033 18.3288 15.0475C18.2554 14.8916 18.2192 14.73 18.22 14.5625C18.22 14.2083 18.34 13.9116 18.58 13.6725C18.82 13.4333 19.1167 13.3133 19.47 13.3125C19.6367 13.3125 19.8033 13.3491 19.97 13.4225C20.1367 13.4958 20.2721 13.5841 20.3763 13.6875C21.0429 14.3541 21.5638 15.125 21.9388 16C22.3138 16.875 22.5012 17.8125 22.5012 18.8125C22.5012 19.8125 22.3088 20.7554 21.9237 21.6412C21.5387 22.5271 21.0125 23.3029 20.345 23.9687C20.2408 24.0729 20.1108 24.1562 19.955 24.2187C19.7992 24.2812 19.6375 24.3125 19.47 24.3125ZM2.5 27.5V25C3.45833 25 4.40625 24.9375 5.34375 24.8125C6.28125 24.6875 7.19792 24.4583 8.09375 24.125C7.13542 23.6458 6.38042 22.9533 5.82875 22.0475C5.27708 21.1416 5.00083 20.1571 5 19.0937V16.25H10V12.5H14.2188L10.6875 5.43748C10.5208 5.12498 10.495 4.80748 10.61 4.48498C10.725 4.16248 10.9383 3.91748 11.25 3.74998C11.5625 3.58331 11.8804 3.55748 12.2037 3.67248C12.5271 3.78748 12.7717 4.00081 12.9375 4.31248L16.4688 11.375C16.8854 12.2083 16.8542 13.0208 16.375 13.8125C15.8958 14.6041 15.1875 15 14.25 15H12.5V16.25C12.5 16.9375 12.2554 17.5262 11.7663 18.0162C11.2771 18.5062 10.6883 18.7508 10 18.75H7.5V19.0937C7.5 19.8229 7.72417 20.4637 8.1725 21.0162C8.62083 21.5687 9.18833 21.9383 9.875 22.125L10.25 22.2187C11.0833 22.4271 11.5521 22.9479 11.6562 23.7812C11.7604 24.6146 11.4375 25.2396 10.6875 25.6562C9.4375 26.3437 8.12 26.8229 6.735 27.0937C5.35 27.3646 3.93833 27.5 2.5 27.5Z" fill="#3D6AC1"/>
</svg>
