<svg width="30" height="30" viewBox="0 0 30 30" fill="none" xmlns="http://www.w3.org/2000/svg">
<path d="M21.25 5C22.9076 5 24.4973 5.65848 25.6694 6.83058C26.8415 8.00269 27.5 9.5924 27.5 11.25C27.5 12.975 26.8 14.5375 25.675 15.675L15 26.3375L4.325 15.675C3.2 14.5375 2.5 12.975 2.5 11.25C2.5 9.5924 3.15848 8.00269 4.33058 6.83058C5.50269 5.65848 7.0924 5 8.75 5C10.475 5 12.0375 5.7 13.175 6.825L15 8.6625L16.825 6.825C17.9625 5.7 19.525 5 21.25 5ZM19.4875 9.4875L11.4625 17.5L15 21.0375L23.0125 13.0125C23.475 12.5625 23.75 11.9375 23.75 11.25C23.75 10.587 23.4866 9.95107 23.0178 9.48223C22.5489 9.01339 21.913 8.75 21.25 8.75C20.5625 8.75 19.9375 9.025 19.4875 9.4875ZM10.5125 9.4875C10.0625 9.025 9.4375 8.75 8.75 8.75C8.08696 8.75 7.45107 9.01339 6.98223 9.48223C6.51339 9.95107 6.25 10.587 6.25 11.25C6.25 11.9375 6.525 12.5625 6.9875 13.0125L8.8125 14.85L12.35 11.3125L10.5125 9.4875Z" fill="white"/>
</svg>
