<svg width="30" height="26" viewBox="0 0 30 26" fill="none" xmlns="http://www.w3.org/2000/svg">
<path d="M19.0385 0H27.6923C28.3043 0 28.8913 0.288372 29.3241 0.801622C29.7568 1.31487 30 2.01103 30 2.73684V13.6842C30 14.41 29.7568 15.1062 29.3241 15.6194C28.8913 16.1327 28.3043 16.4211 27.6923 16.4211H19.0385V17.7895C19.0385 19.2412 19.5247 20.6334 20.3903 21.6599C21.2558 22.6865 22.4298 23.2632 23.6538 23.2632C23.9598 23.2632 24.2534 23.4073 24.4698 23.6639C24.6862 23.9205 24.8077 24.2687 24.8077 24.6316C24.8077 24.9945 24.6862 25.3426 24.4698 25.5992C24.2534 25.8558 23.9598 26 23.6538 26C21.8183 25.9977 20.0585 25.132 18.7606 23.5927C17.4627 22.0534 16.7327 19.9664 16.7308 17.7895V2.73684C16.7308 2.01103 16.9739 1.31487 17.4067 0.801622C17.8395 0.288372 18.4265 0 19.0385 0ZM19.0385 13.6842H27.6923V2.73684H19.0385V13.6842ZM2.30769 0H10.9615C11.5735 0 12.1605 0.288372 12.5933 0.801622C13.0261 1.31487 13.2692 2.01103 13.2692 2.73684V13.6842C13.2692 14.41 13.0261 15.1062 12.5933 15.6194C12.1605 16.1327 11.5735 16.4211 10.9615 16.4211H2.30769V17.7895C2.30769 19.2412 2.79395 20.6334 3.65951 21.6599C4.52508 22.6865 5.699 23.2632 6.92308 23.2632C7.22908 23.2632 7.52262 23.4073 7.739 23.6639C7.95539 23.9205 8.07692 24.2687 8.07692 24.6316C8.07692 24.9945 7.95539 25.3426 7.739 25.5992C7.52262 25.8558 7.22908 26 6.92308 26C5.08754 25.9977 3.32775 25.132 2.02983 23.5927C0.731916 22.0534 0.00190769 19.9664 0 17.7895V2.73684C0 2.01103 0.243131 1.31487 0.675908 0.801622C1.10868 0.288372 1.69565 0 2.30769 0ZM2.30769 13.6842H10.9615V2.73684H2.30769V13.6842Z" fill="#6C6A72"/>
</svg>
