<svg width="196" height="226" viewBox="0 0 196 226" fill="none" xmlns="http://www.w3.org/2000/svg">
<path d="M25.8594 172.551V14.0005C25.8594 8.47764 30.3365 4.00049 35.8594 4.00049H111.512C117.034 4.00049 121.512 8.47764 121.512 14.0005V172.551C121.512 178.074 117.034 182.551 111.512 182.551H35.8594C30.3365 182.551 25.8594 178.074 25.8594 172.551Z" stroke="white" stroke-width="8"/>
<path d="M121.516 74.6012C126.678 67.3134 138.642 54.9242 145.201 63.6695C153.4 74.6012 144.745 116.506 149.756 127.893C154.766 139.28 160.232 168.887 160.232 173.897C160.232 177.905 182.095 200.467 193.027 211.247" stroke="white" stroke-width="8"/>
<path d="M43.1719 182.551C53.6481 188.928 76.8779 201.682 85.9876 201.682C95.0973 201.682 102.537 216.561 105.118 224.001" stroke="white" stroke-width="8"/>
<path d="M24.6853 68.2227C24.6853 72.1875 20.6788 76.4449 14.3427 76.4449C8.00651 76.4449 4 72.1875 4 68.2227C4 64.2579 8.00651 60.0005 14.3427 60.0005C20.6788 60.0005 24.6853 64.2579 24.6853 68.2227Z" stroke="white" stroke-width="8"/>
<path d="M24.6853 87.1119C24.6853 91.0767 20.6788 95.3341 14.3427 95.3341C8.00651 95.3341 4 91.0767 4 87.1119C4 83.1471 8.00651 78.8896 14.3427 78.8896C20.6788 78.8896 24.6853 83.1471 24.6853 87.1119Z" stroke="white" stroke-width="8"/>
<path d="M24.6853 106.001C24.6853 109.966 20.6788 114.223 14.3427 114.223C8.00651 114.223 4 109.966 4 106.001C4 102.036 8.00651 97.7786 14.3427 97.7786C20.6788 97.7786 24.6853 102.036 24.6853 106.001Z" stroke="white" stroke-width="8"/>
<path d="M24.6853 124.889C24.6853 128.854 20.6788 133.112 14.3427 133.112C8.00651 133.112 4 128.854 4 124.889C4 120.925 8.00651 116.667 14.3427 116.667C20.6788 116.667 24.6853 120.925 24.6853 124.889Z" stroke="white" stroke-width="8"/>
<path d="M24.6853 143.778C24.6853 147.743 20.6788 152 14.3427 152C8.00651 152 4 147.743 4 143.778C4 139.813 8.00651 135.556 14.3427 135.556C20.6788 135.556 24.6853 139.813 24.6853 143.778Z" stroke="white" stroke-width="8"/>
<mask id="path-9-inside-1_2076_3633" fill="white">
<rect x="49.5469" y="60.4807" width="49.1925" height="50.1035" rx="3"/>
</mask>
<rect x="49.5469" y="60.4807" width="49.1925" height="50.1035" rx="3" stroke="white" stroke-width="16" mask="url(#path-9-inside-1_2076_3633)"/>
<rect x="57.7422" y="120.605" width="31.8841" height="7.28779" rx="3.64389" fill="white"/>
<rect x="55.9251" y="141.557" width="36.4389" height="7.28779" rx="3.64389" stroke="white" stroke-width="7.28779"/>
<path d="M64.125 69.5904C64.1239 61.9858 64.2728 46.4308 75.4996 47.8135C86.7264 49.1961 84.9789 68.8991 84.9789 69.5904" stroke="white" stroke-width="8"/>
</svg>
