<svg width="46" height="46" viewBox="0 0 46 46" fill="none" xmlns="http://www.w3.org/2000/svg">
<path fill-rule="evenodd" clip-rule="evenodd" d="M22.9999 3.83333C33.5857 3.83333 42.1666 12.4142 42.1666 23C42.1666 33.5857 33.5857 42.1667 22.9999 42.1667C12.4142 42.1667 3.83325 33.5857 3.83325 23C3.83325 12.4142 12.4142 3.83333 22.9999 3.83333ZM26.8026 27.3125C25.7868 28.2095 24.4585 28.75 22.9999 28.75C21.5991 28.7525 20.2461 28.241 19.1973 27.3125C18.816 26.976 18.3167 26.8047 17.8092 26.8363C17.3016 26.868 16.8274 27.0999 16.4909 27.4812C16.1544 27.8624 15.9831 28.3617 16.0148 28.8693C16.0464 29.3768 16.2783 29.851 16.6596 30.1875C18.4094 31.7338 20.6648 32.586 22.9999 32.5833C25.3352 32.5865 27.5907 31.7342 29.3403 30.1875C29.7215 29.851 29.9535 29.3768 29.9851 28.8693C30.0167 28.3617 29.8454 27.8624 29.5089 27.4812C29.1724 27.0999 28.6982 26.868 28.1907 26.8363C27.6831 26.8047 27.1838 26.976 26.8026 27.3125ZM16.2916 15.3333C14.2082 15.3333 12.5388 16.6367 11.7031 18.308C11.4834 18.7453 11.4393 19.25 11.5798 19.7187C11.7203 20.1875 12.0347 20.5847 12.4587 20.8291C12.8827 21.0734 13.3841 21.1463 13.8601 21.0329C14.3361 20.9194 14.7507 20.6282 15.0189 20.2189L15.1301 20.0253C15.4406 19.4043 15.9159 19.1667 16.2916 19.1667C16.6174 19.1667 17.0238 19.3487 17.3285 19.8107L17.4531 20.0253C17.6832 20.4757 18.0819 20.8169 18.5625 20.9746C19.0431 21.1322 19.5665 21.0935 20.0186 20.8669C20.4708 20.6404 20.8151 20.2442 20.9764 19.7649C21.1378 19.2856 21.1032 18.7619 20.8801 18.308C20.0425 16.6367 18.375 15.3333 16.2916 15.3333ZM29.7083 15.3333C27.6248 15.3333 25.9573 16.6367 25.1198 18.308C24.9001 18.7453 24.8559 19.25 24.9964 19.7187C25.1369 20.1875 25.4514 20.5847 25.8754 20.8291C26.2994 21.0734 26.8008 21.1463 27.2768 21.0329C27.7528 20.9194 28.1674 20.6282 28.4356 20.2189L28.5468 20.0253C28.8573 19.4043 29.3326 19.1667 29.7083 19.1667C30.0341 19.1667 30.4404 19.3487 30.7452 19.8107L30.8698 20.0253C30.9813 20.2523 31.1367 20.455 31.327 20.6217C31.5173 20.7884 31.7387 20.9157 31.9784 20.9964C32.2181 21.0771 32.4715 21.1096 32.7238 21.0919C32.9761 21.0743 33.2225 21.0068 33.4486 20.8935C33.6747 20.7802 33.8762 20.6232 34.0414 20.4316C34.2066 20.2401 34.3322 20.0177 34.4111 19.7774C34.4899 19.537 34.5204 19.2834 34.5008 19.0312C34.4812 18.7791 34.4118 18.5333 34.2967 18.308C33.4611 16.6367 31.7917 15.3333 29.7083 15.3333Z" fill="white"/>
</svg>
