<svg width="26" height="26" viewBox="0 0 26 26" fill="none" xmlns="http://www.w3.org/2000/svg">
<path d="M17.6875 0.841553L17.0725 1.51562C15.6953 3.03155 14.56 3.70937 13.615 4.1528C12.67 4.5953 11.8759 4.72749 11.0959 5.32468C10.2644 5.96218 9.05594 7.18468 8.54688 9.36718C7.45563 9.6053 6.65688 10.0234 6.02688 10.5681C5.40438 11.1062 4.93563 11.7184 4.35812 12.385C4.35344 12.3925 4.36094 12.4066 4.35812 12.4141C3.52938 13.3666 2.80469 14.3922 1.39844 14.9341L0.8125 15.1684V25.1875H18.6841C19.7087 25.1322 20.4194 24.4225 20.8516 23.7222C21.2828 23.0228 21.5219 22.2653 21.6428 21.6428C21.9541 20.0566 22.5212 15.49 22.5212 15.49L22.5513 15.4028V15.3147C22.5212 14.6809 22.2606 14.1428 21.9353 13.6441L22.99 10.51L24.6606 7.98999L25.1294 7.31593L24.5134 6.75999L18.3616 1.42749L17.6875 0.841553ZM17.7466 3.41968L22.6384 7.66843L21.3494 9.57155L21.2622 9.66061L21.2322 9.80686L20.3828 12.3259C19.9394 12.1431 19.4828 12.0147 18.9766 12.0334H18.9175L13 12.0625H12.0625V15.6953C11.9312 16.7172 11.3631 17.1128 10.6562 17.395C10.4219 17.4897 10.3928 17.4381 10.1875 17.4822V12.0344C10.0337 8.55905 11.2712 7.55874 12.2387 6.81905C12.5059 6.61374 13.2887 6.37655 14.4062 5.85249C15.34 5.4128 16.5006 4.62437 17.7466 3.41968ZM8.37156 11.4766C8.36781 11.6894 8.30125 11.8394 8.3125 12.0625V19.5625H9.25C9.25 19.5625 10.2531 19.5512 11.3303 19.1228C12.4066 18.6944 13.7069 17.6912 13.9375 15.9297V13.9375L18.9766 13.9084H19.0056C19.4172 13.8859 19.8209 14.0273 20.1284 14.3018C20.4358 14.5762 20.6221 14.9614 20.6462 15.3728C20.6425 15.3878 20.5994 15.7356 20.5881 15.8125H16.75V17.6875H20.3538C20.2544 18.4122 20.1634 18.8669 20.0603 19.5625H16.75V21.4375H19.7678C19.657 21.8911 19.4791 22.3255 19.24 22.7266C18.9841 23.1437 18.7638 23.3012 18.5669 23.3125H2.6875V16.3103C4.20719 15.5041 5.15219 14.3444 5.76344 13.645C6.39719 12.9194 6.83219 12.37 7.25781 12.0044C7.53625 11.7662 7.97219 11.6303 8.37156 11.4766Z" fill="white"/>
</svg>
