<svg width="28" height="26" viewBox="0 0 28 26" fill="none" xmlns="http://www.w3.org/2000/svg">
<path d="M21.5 18C22.25 18 22.75 18.5 22.75 19.25C22.75 20 22.25 20.5 21.5 20.5C20.75 20.5 20.25 20 20.25 19.25C20.25 18.5 20.75 18 21.5 18ZM26.5 19.25C27.25 19.25 27.75 19.75 27.75 20.5C27.75 21.25 27.25 21.75 26.5 21.75C25.75 21.75 25.25 21.25 25.25 20.5C25.25 19.75 25.75 19.25 26.5 19.25ZM22.75 23C23.5 23 24 23.5 24 24.25C24 25 23.5 25.5 22.75 25.5C22 25.5 21.5 25 21.5 24.25C21.5 23.5 22 23 22.75 23ZM8.75 0.499984C13.75 0.374984 17.75 4.12498 17.875 9.12498V9.37498L20.125 14.125C20.375 14.75 20.125 15.5 19.5 15.75C19.375 15.875 19.125 15.875 19 15.875H17.875V18.125C17.875 19.5 16.75 20.5 15.5 20.5H14.375V22.75C14.375 23.5 13.875 24 13.125 24H2.25C1.625 23.75 1.25 23.125 1.375 22.5L2.5 18.75L0.25 10.25V9.62498C0.25 4.74998 4 0.749984 8.75 0.499984Z" fill="#3B6B72"/>
</svg>
